HIERARCHY
ROOT Hips
{
	OFFSET 0.000000 0.000000 0.000000
	CHANNELS 6 Xposition Yposition Zposition Zrotation Yrotation Xrotation 
	JOINT LHipJoint
	{
		OFFSET 0.000000 0.000000 0.000000
		CHANNELS 3 Zrotation Yrotation Xrotation
		JOINT LeftUpLeg
		{
			OFFSET 8.178360 -10.767780 5.035740
			CHANNELS 3 Zrotation Yrotation Xrotation
			JOINT LeftLeg
			{
				OFFSET 14.688660 -40.356780 0.000000
				CHANNELS 3 Zrotation Yrotation Xrotation
				JOINT LeftFoot
				{
					OFFSET 15.373200 -42.237540 0.000000
					CHANNELS 3 Zrotation Yrotation Xrotation
					JOINT LeftToeBase
					{
						OFFSET 0.945840 -2.598660 13.935300
						CHANNELS 3 Zrotation Yrotation Xrotation
						End Site
						{
							OFFSET 0.000000 0.000000 0.000000
						}
					}
				}
			}
		}
	}
	JOINT RHipJoint
	{
		OFFSET 0.000000 0.000000 0.000000
		CHANNELS 3 Zrotation Yrotation Xrotation
		JOINT RightUpLeg
		{
			OFFSET -7.833120 -10.767780 5.035740
			CHANNELS 3 Zrotation Yrotation Xrotation
			JOINT RightLeg
			{
				OFFSET -15.255180 -41.913300 0.000000
				CHANNELS 3 Zrotation Yrotation Xrotation
				JOINT RightFoot
				{
					OFFSET -15.409560 -42.337380 0.000000
					CHANNELS 3 Zrotation Yrotation Xrotation
					JOINT RightToeBase
					{
						OFFSET -0.988380 -2.715540 14.178900
						CHANNELS 3 Zrotation Yrotation Xrotation
						End Site
						{
							OFFSET 0.000000 0.000000 0.000000
						}
					}
				}
			}
		}
	}
	JOINT LowerBack
	{
		OFFSET 0.000000 0.000000 0.000000
		CHANNELS 3 Zrotation Yrotation Xrotation
		JOINT Spine
		{
			OFFSET 0.169620 12.213540 -1.160280
			CHANNELS 3 Zrotation Yrotation Xrotation
			JOINT Spine1
			{
				OFFSET 0.340320 12.293100 -0.256500
				CHANNELS 3 Zrotation Yrotation Xrotation
				JOINT Neck
				{
					OFFSET 0.000000 0.000000 0.000000
					CHANNELS 3 Zrotation Yrotation Xrotation
					JOINT Neck1
					{
						OFFSET -0.325020 10.477440 1.032120
						CHANNELS 3 Zrotation Yrotation Xrotation
						JOINT Head
						{
							OFFSET 0.624420 10.568160 -0.743820
							CHANNELS 3 Zrotation Yrotation Xrotation
							End Site
							{
								OFFSET 0.000000 0.000000 0.000000
							}
						}
					}
				}
				JOINT LeftShoulder
				{
					OFFSET 0.000000 0.000000 0.000000
					CHANNELS 3 Zrotation Yrotation Xrotation
					JOINT LeftArm
					{
						OFFSET 20.174460 7.205340 -1.867260
						CHANNELS 3 Zrotation Yrotation Xrotation
						JOINT LeftForeArm
						{
							OFFSET 29.898000 -0.000000 -0.000000
							CHANNELS 3 Zrotation Yrotation Xrotation
							JOINT LeftHand
							{
								OFFSET 20.901360 -0.000000 -0.000000
								CHANNELS 3 Zrotation Yrotation Xrotation
								JOINT LeftFingerBase
								{
									OFFSET 0.000000 0.000000 0.000000
									CHANNELS 3 Zrotation Yrotation Xrotation
									JOINT LeftHandIndex1
									{
										OFFSET 4.291560 -0.000000 -0.000000
										CHANNELS 3 Zrotation Yrotation Xrotation
										End Site
										{
											OFFSET 0.000000 0.000000 0.000000
										}
									}
								}
								JOINT LThumb
								{
									OFFSET 0.000000 0.000000 0.000000
									CHANNELS 3 Zrotation Yrotation Xrotation
									End Site
									{
										OFFSET 0.000000 0.000000 0.000000
									}
								}
							}
						}
					}
				}
				JOINT RightShoulder
				{
					OFFSET 0.000000 0.000000 0.000000
					CHANNELS 3 Zrotation Yrotation Xrotation
					JOINT RightArm
					{
						OFFSET -18.819600 8.244300 -2.427900
						CHANNELS 3 Zrotation Yrotation Xrotation
						JOINT RightForeArm
						{
							OFFSET -31.451400 -0.000000 -0.000000
							CHANNELS 3 Zrotation Yrotation Xrotation
							JOINT RightHand
							{
								OFFSET -20.665020 -0.000000 -0.000000
								CHANNELS 3 Zrotation Yrotation Xrotation
								JOINT RightFingerBase
								{
									OFFSET 0.000000 0.000000 0.000000
									CHANNELS 3 Zrotation Yrotation Xrotation
									JOINT RightHandIndex1
									{
										OFFSET -3.735180 -0.000000 -0.000000
										CHANNELS 3 Zrotation Yrotation Xrotation
										End Site
										{
											OFFSET 0.000000 0.000000 0.000000
										}
									}
								}
								JOINT RThumb
								{
									OFFSET 0.000000 0.000000 0.000000
									CHANNELS 3 Zrotation Yrotation Xrotation
									End Site
									{
										OFFSET 0.000000 0.000000 0.000000
									}
								}
							}
						}
					}
				}
			}
		}
	}
}
MOTION
Frames:	6
Frame Time:	0.0333333
-49.288620 106.027812 -198.651852 5.960585 0.910577 2.807746 -0.320923 2.463758 2.671424 -27.685312 -0.548319 7.111467 -0.365440 4.596426 16.587749 0.836259 -1.975906 1.231240 0.425400 -4.186200 -11.601100 -1.365145 -1.866800 0.207610 14.390371 9.841971 -28.080369 0.253277 -5.639464 14.790752 1.600181 -9.904987 7.667797 -0.033800 1.186200 -3.261400 -5.931889 -3.861402 1.761034 0.859913 -5.452672 -1.345668 5.614320 -2.707379 0.378189 -9.534093 0.698661 -7.425102 3.971296 2.076712 10.264409 3.798900 0.550600 6.271000 -7.747299 2.995110 -2.088416 -79.912671 -5.316373 15.438834 12.177817 -22.916701 -3.259320 -1.558620 -3.194692 8.021652 18.308969 20.601785 8.174000 -7.125000 0.000000 0.000000 -10.548800 54.946900 -2.598300 6.153366 -2.547704 -1.961877 81.478001 -3.437494 9.199348 -10.955019 17.257689 -2.332108 0.700111 -0.927087 12.784956 -10.823336 12.261091 -2.666800 7.125000 0.000000 0.000000 10.755400 -16.871300 7.301800 
-49.943994 106.464522 -194.159700 6.093403 2.036787 2.551285 -0.323014 2.602632 2.903026 -27.217799 -1.779561 9.175263 -0.207909 4.956473 17.735456 0.797074 -2.042668 3.387761 1.360100 -7.382000 -20.852000 -1.501951 -2.026775 0.370826 14.867685 10.133324 -26.889318 -0.173632 -6.693828 17.842584 1.840952 -11.377336 9.650682 -0.103000 2.069200 -5.697000 -7.760636 -3.464983 5.023090 1.489430 -5.398329 -2.377939 8.949181 -2.317854 -3.893854 -10.564915 -0.181972 -7.767774 3.079814 1.209704 12.093229 3.388900 -0.146900 7.561300 -7.535971 2.931265 -2.315355 -82.564099 -2.123414 16.012874 12.260866 -22.901040 -3.248349 -1.766001 -3.188055 9.234254 19.528839 21.203320 9.003100 -7.125000 0.000000 0.000000 -9.425000 55.872600 -2.530300 6.251437 -2.484641 -2.336587 79.301922 -7.184760 8.480113 -11.396284 17.975722 -2.525026 0.689543 -0.846862 10.880500 -10.268465 12.266916 -2.517800 7.125000 0.000000 0.000000 11.171900 -16.948500 7.576400 
-50.388708 107.198736 -189.699582 4.583322 2.292765 2.471946 -0.350124 2.636224 2.995044 -25.681908 -3.844871 9.087532 0.421668 6.493185 22.124136 0.553682 -0.919665 8.540964 1.497400 -7.729700 -21.896000 -1.548574 -2.160903 0.510095 17.005267 9.569509 -25.055235 -0.185663 -6.571056 17.806434 1.550759 -10.996828 12.389219 -0.000600 -0.152400 0.418800 -6.773025 -4.659060 4.962029 2.247092 -7.036710 -2.899646 10.693539 -2.897118 -5.136617 -12.012278 1.183732 -5.962184 2.859472 3.149379 11.921466 3.619500 0.663300 6.911000 -7.432916 3.242749 -2.394094 -85.004822 1.436211 11.258094 12.171738 -22.869474 -3.236002 -1.764094 -3.068344 9.786705 19.305485 19.903170 8.422000 -7.125000 0.000000 0.000000 -9.084500 54.393400 -2.110000 6.300231 -2.609198 -2.456238 76.814893 -9.094076 12.352736 -11.431649 18.222733 -2.579450 0.764340 -0.729963 9.864595 -10.490311 11.577668 -2.421400 7.125000 0.000000 0.000000 11.015800 -17.735400 7.272700 
-50.792778 107.642844 -185.465514 3.546898 0.581312 2.094008 -0.202598 2.486932 2.802552 -24.830690 -3.246332 5.976532 1.758471 8.894352 29.387086 0.725682 -0.467699 15.887854 1.301100 -7.226400 -20.388000 -1.612263 -2.195909 0.616586 19.326905 9.178008 -23.082237 -0.321010 -6.820016 19.085725 1.026607 -8.409370 11.969381 -0.012700 -0.726800 1.997500 -5.525425 -3.852569 4.977518 2.236069 -5.860430 -2.842208 10.042188 -2.316861 -5.302919 -11.801087 0.856950 -6.407318 2.878774 2.740446 12.139109 3.593000 0.459100 7.181800 -7.500272 3.285523 -2.398895 -85.543878 2.278968 10.016877 11.680079 -22.047090 -2.953055 -1.858536 -2.989247 10.351873 19.679504 19.184825 8.353100 -7.125000 0.000000 0.000000 -8.329600 53.689500 -1.789300 6.373108 -2.613363 -2.459211 77.178970 -8.941105 10.324737 -11.219175 17.879962 -2.489480 0.646944 -0.842863 10.583087 -9.629061 12.354041 -2.376400 7.125000 0.000000 0.000000 11.638300 -16.892200 7.920700 
-51.386556 108.240318 -181.291812 2.449021 0.368535 1.765833 -0.101999 2.369493 2.571387 -22.980378 -3.214408 2.014874 3.375287 11.145484 36.299829 1.708301 1.077215 29.024432 0.007700 0.565100 1.552900 -1.602588 -2.277981 0.716112 21.489228 8.262709 -20.160970 -0.322382 -6.595887 18.942264 1.039485 -7.810102 10.632792 -0.128100 -2.307200 6.355500 -4.422191 -3.518178 4.962574 2.222692 -5.311718 -2.667121 9.341125 -2.115154 -4.813017 -11.506738 0.683316 -7.600551 3.267235 2.581478 12.321226 3.738800 0.420000 7.546300 -7.555200 3.304793 -2.364707 -85.766777 2.444190 8.298013 11.287864 -21.395455 -2.775486 -1.580848 -3.058161 10.423261 17.158883 19.520054 7.271900 -7.125000 0.000000 0.000000 -11.320900 53.533500 -2.399700 6.392252 -2.587177 -2.458989 77.761403 -8.122316 11.159458 -11.434337 18.119296 -2.565351 0.696665 -0.840628 10.149043 -10.118034 12.426656 -2.512800 7.125000 0.000000 0.000000 11.272400 -16.795500 7.685700 
-51.889176 108.891996 -177.461814 0.851267 -0.363876 1.780691 0.148296 2.180938 2.248835 -20.983285 -3.785950 -3.244041 5.300712 13.397204 44.498873 2.327991 -1.784536 31.023847 0.283000 -3.421500 -9.454500 -1.633315 -2.371392 0.848519 24.106078 7.855431 -16.558614 -0.064168 -5.623787 16.704716 1.030055 -7.537217 10.743866 -0.242600 -3.169400 8.750700 -2.970803 -3.216369 4.911295 2.419244 -4.816223 -2.686594 9.158354 -1.822347 -5.018873 -11.584300 0.638069 -7.202962 3.440351 2.482186 11.869226 3.821300 0.411100 7.276200 -7.524427 3.390466 -2.404582 -86.301451 3.895128 8.806944 11.235431 -21.346639 -2.749627 -1.661242 -3.000364 9.664034 18.092452 18.612391 7.418000 -7.125000 0.000000 0.000000 -9.866000 52.748400 -1.896000 6.421726 -2.529112 -2.419853 77.315644 -7.418666 13.112346 -11.512635 18.179148 -2.584477 0.782171 -0.797741 9.024007 -10.722178 12.181728 -2.612400 7.125000 0.000000 0.000000 10.822600 -17.041600 7.308100 
